<svg width="132" height="132" viewBox="0 0 132 132" fill="none" xmlns="http://www.w3.org/2000/svg">
<circle cx="66" cy="66" r="66" fill="#0060AF" fill-opacity="0.1"/>
<g filter="url(#filter0_d)">
<path d="M13.9277 99.0886C13.9277 92.1878 15.287 85.3546 17.9278 78.9791C20.5686 72.6036 24.4392 66.8107 29.3188 61.9311C34.1984 57.0516 39.9913 53.1809 46.3668 50.54C52.7423 47.8992 59.5755 46.54 66.4763 46.54C80.413 46.54 93.779 52.0764 103.634 61.9312C113.488 71.7859 119.025 85.1518 119.025 99.0886H66.4763H13.9277Z" fill="#FBFBFB"/>
<path d="M27.0527 99.0886C27.0527 93.9114 28.0724 88.7849 30.0536 84.0018C32.0348 79.2188 34.9388 74.8727 38.5996 71.2119C42.2604 67.5511 46.6064 64.6472 51.3895 62.666C56.1726 60.6848 61.2991 59.665 66.4763 59.665C76.932 59.665 86.9596 63.8186 94.3529 71.2119C101.746 78.6053 105.9 88.6328 105.9 99.0886H66.4763H27.0527Z" fill="#F3F3F5"/>
<path d="M35.6699 99.0884C35.6699 95.0429 36.4667 91.0371 38.0148 87.2996C39.5629 83.562 41.8321 80.1661 44.6927 77.3055C47.5532 74.4449 50.9493 72.1758 54.6868 70.6277C58.4243 69.0795 62.4301 68.2827 66.4756 68.2827C74.6458 68.2827 82.4813 71.5283 88.2585 77.3055C94.0357 83.0827 97.2813 90.9182 97.2812 99.0884H66.4756H35.6699Z" fill="#E8E8EC"/>
<path d="M45.2832 99.0885C45.2832 96.3053 45.8314 93.5494 46.8965 90.9781C47.9615 88.4068 49.5226 86.0704 51.4906 84.1024C53.4586 82.1344 55.7949 80.5733 58.3662 79.5083C60.9375 78.4432 63.6935 77.895 66.4766 77.895C72.0975 77.895 77.4881 80.1279 81.4627 84.1024C85.4372 88.077 87.6701 93.4676 87.6701 99.0885H66.4766H45.2832Z" fill="#DFDFE5"/>
<path d="M13.9277 98.0806H24.6237M21.8998 98.0806H103.47H21.8998ZM108.552 98.0806H112.422H108.552Z" stroke="#12141A" stroke-linecap="round" stroke-linejoin="round"/>
<path d="M56.1668 109.644H65.7595M46.335 101.957H83.3376H46.335ZM51.1383 105.749H61.0064H51.1383ZM65.6324 105.749H78.8714H65.6324Z" stroke="#E6E6E6" stroke-linecap="round" stroke-linejoin="round"/>
<path fill-rule="evenodd" clip-rule="evenodd" d="M64.7077 44.7813C64.3841 44.7869 64.1258 45.0528 64.1308 45.3765C64.1308 45.7828 63.9573 45.9671 63.554 45.9671C62.7614 45.9558 62.7614 47.1505 63.554 47.1391C63.9423 47.1391 64.1308 47.2466 64.1308 47.7045C64.1196 48.497 65.3141 48.497 65.3029 47.7045C65.3029 47.2887 65.4975 47.1391 65.8821 47.1391C66.6747 47.1504 66.6747 45.9558 65.8821 45.9671C65.3596 45.9671 65.3029 45.6681 65.3029 45.3765C65.3067 45.0457 65.0385 44.7761 64.7077 44.7813ZM39.2099 50.8875C38.7657 50.895 38.4112 51.2602 38.4181 51.7044C38.4181 52.2621 38.1798 52.515 37.6264 52.515C36.5386 52.5 36.5386 54.1391 37.6264 54.1236C38.1593 54.1236 38.4181 54.2712 38.4181 54.8996C38.4031 55.9873 40.0421 55.9873 40.0267 54.8996C40.0267 54.3289 40.2938 54.1236 40.8216 54.1236C41.9095 54.1405 41.9095 52.4995 40.8216 52.515C40.1044 52.515 40.0267 52.1047 40.0267 51.7044C40.0323 51.2503 39.664 50.8804 39.2099 50.8875Z" fill="#FFCC00"/>
<path fill-rule="evenodd" clip-rule="evenodd" d="M34.3377 65.6324C34.0939 65.6361 33.8993 65.837 33.9031 66.0808C33.9031 66.387 33.7722 66.5258 33.4684 66.5258C32.8712 66.5165 32.8712 67.4175 33.4684 67.409C33.761 67.409 33.9031 67.49 33.9031 67.835C33.8937 68.4322 34.7947 68.4322 34.7862 67.835C34.7862 67.5217 34.9328 67.409 35.2226 67.409C35.8198 67.4183 35.8198 66.5173 35.2226 66.5258C34.8289 66.5258 34.7862 66.3006 34.7862 66.0808C34.79 65.8316 34.587 65.6285 34.3377 65.6324V65.6324Z" fill="#12141A"/>
<path fill-rule="evenodd" clip-rule="evenodd" d="M38.5782 28.1519C38.2546 28.1576 37.9963 28.4234 38.0013 28.7471C38.0013 29.1534 37.8278 29.3377 37.4245 29.3377C36.6319 29.3264 36.6319 30.5211 37.4245 30.5097C37.8128 30.5097 38.0013 30.6172 38.0013 31.0752C37.9901 31.8677 39.1846 31.8677 39.1734 31.0752C39.1734 30.6593 39.3679 30.5097 39.7525 30.5097C40.5451 30.521 40.5451 29.3264 39.7525 29.3377C39.23 29.3377 39.1734 29.0387 39.1734 28.7471C39.1772 28.4163 38.909 28.1468 38.5782 28.1519Z" fill="#FF8E00"/>
<path fill-rule="evenodd" clip-rule="evenodd" d="M75.5838 27.0088C75.3399 27.0126 75.1453 27.2134 75.1492 27.4573C75.1492 27.7635 75.0183 27.9023 74.7145 27.9023C74.1173 27.893 74.1173 28.794 74.7145 28.7855C75.0071 28.7855 75.1492 28.8665 75.1492 29.2115C75.1398 29.8086 76.0408 29.8086 76.0323 29.2115C76.0323 28.8982 76.1789 28.7855 76.4687 28.7855C77.0659 28.7948 77.0659 27.8938 76.4687 27.9023C76.0749 27.9023 76.0323 27.6771 76.0323 27.4573C76.0361 27.208 75.8331 27.0049 75.5838 27.0088V27.0088Z" fill="#12141A"/>
<path fill-rule="evenodd" clip-rule="evenodd" d="M93.0909 38.6041C92.7673 38.6097 92.5091 38.8756 92.5141 39.1993C92.5141 39.6056 92.3405 39.7898 91.9372 39.7898C91.1446 39.7786 91.1446 40.9732 91.9372 40.9619C92.3255 40.9619 92.5141 41.0693 92.5141 41.5273C92.5029 42.3198 93.6973 42.3198 93.6861 41.5273C93.6861 41.1115 93.8807 40.9619 94.2653 40.9619C95.0579 40.9731 95.0579 39.7785 94.2653 39.7898C93.7428 39.7898 93.6861 39.4909 93.6861 39.1993C93.6899 38.8684 93.4217 38.5989 93.0909 38.6041Z" fill="#FF8E00"/>
<path fill-rule="evenodd" clip-rule="evenodd" d="M88.1873 53.5567C87.9435 53.5604 87.7489 53.7613 87.7527 54.0052C87.7527 54.3113 87.6218 54.4502 87.3181 54.4502C86.7208 54.4408 86.7208 55.3418 87.3181 55.3333C87.6106 55.3333 87.7527 55.4143 87.7527 55.7594C87.7433 56.3565 88.6442 56.3565 88.6357 55.7594C88.6357 55.446 88.7824 55.3333 89.0722 55.3333C89.6694 55.3427 89.6694 54.4416 89.0722 54.4502C88.6785 54.4502 88.6357 54.2249 88.6357 54.0052C88.6395 53.7559 88.4366 53.5528 88.1873 53.5567V53.5567Z" fill="#12141A"/>
<path fill-rule="evenodd" clip-rule="evenodd" d="M87.5624 68.2511C87.1182 68.2586 86.7637 68.6237 86.7707 69.0679C86.7707 69.6256 86.5324 69.8785 85.979 69.8785C84.8911 69.8635 84.8911 71.5027 85.979 71.4871C86.5119 71.4871 86.7707 71.6347 86.7707 72.2631C86.7557 73.3508 88.3947 73.3508 88.3793 72.2631C88.3793 71.6925 88.6463 71.4871 89.1742 71.4871C90.262 71.504 90.262 69.863 89.1742 69.8785C88.457 69.8785 88.3793 69.4682 88.3793 69.0679C88.3849 68.6139 88.0164 68.244 87.5624 68.2511V68.2511Z" fill="#FF8E00"/>
<path fill-rule="evenodd" clip-rule="evenodd" d="M42.8215 38.4239C42.4978 38.4295 42.2395 38.6954 42.2446 39.0191C42.2446 39.4254 42.0709 39.6097 41.6677 39.6097C40.8751 39.5984 40.8751 40.793 41.6677 40.7817C42.056 40.7817 42.2446 40.8892 42.2446 41.3471C42.2334 42.1396 43.4278 42.1396 43.4166 41.3471C43.4166 40.9313 43.6112 40.7817 43.9958 40.7817C44.7884 40.793 44.7884 39.5983 43.9958 39.6097C43.4732 39.6097 43.4166 39.3107 43.4166 39.0191C43.4203 38.6883 43.1523 38.4187 42.8215 38.4239Z" fill="#FFCC00"/>
<path fill-rule="evenodd" clip-rule="evenodd" d="M57.2085 21.419C56.9583 21.4228 56.7587 21.6289 56.7626 21.879C56.7626 22.193 56.6284 22.3354 56.3169 22.3354C55.7043 22.3261 55.7043 23.25 56.3169 23.2413C56.6169 23.2413 56.7626 23.3243 56.7626 23.6783C56.7551 24.2908 57.6771 24.2908 57.6684 23.6783C57.6684 23.3569 57.8191 23.2413 58.1161 23.2413C58.7287 23.2506 58.7287 22.3267 58.1161 22.3354C57.7123 22.3354 57.6684 22.1044 57.6684 21.879C57.6703 21.6233 57.4641 21.415 57.2085 21.419Z" fill="#12141A"/>
<path d="M62.8533 61.5674C52.4982 61.5674 44.1035 70.3788 44.1035 81.2542C44.1035 83.8134 44.591 86.3457 45.5182 88.7135C48.4044 81.329 55.2513 76.505 62.8533 76.5022C70.4605 76.5022 77.3074 81.3398 80.1883 88.7297C81.1206 86.3565 81.6004 83.8188 81.6031 81.2542C81.6031 70.3788 73.211 61.5674 62.8533 61.5674Z" fill="#00CCFF"/>
<path d="M63.2637 61.5381C63.7337 61.5381 64.2085 61.5606 64.6699 61.5962C54.9655 62.3466 47.3262 70.8434 47.3262 81.2251C47.3275 82.5706 47.4763 83.9573 47.7366 85.2681C47.0484 86.3498 46.4014 87.4902 45.9199 88.7251C44.9877 86.3519 44.5163 83.7897 44.5137 81.2251C44.5137 70.3497 52.906 61.5376 63.2637 61.5376V61.5381Z" fill="white"/>
<path d="M66.0762 76.4795C72.4079 76.4795 78.1717 79.8834 81.6035 85.2686C81.3671 86.4365 81.042 87.6155 80.6074 88.7254C77.9016 81.8025 71.6965 77.0972 64.6699 76.5379C65.1387 76.5004 65.6007 76.4797 66.0762 76.4797V76.4795Z" fill="#0055D4"/>
<path d="M62.8535 61.5381C62.3835 61.5381 61.9087 61.5606 61.4473 61.5962C71.1517 62.3466 78.791 70.8434 78.791 81.2251C78.7897 82.5706 78.6411 83.9573 78.3809 85.2681C79.069 86.3498 79.7158 87.4902 80.1973 88.7251C81.1295 86.3519 81.6009 83.7897 81.6035 81.2251C81.6035 70.3497 73.2112 61.5376 62.8535 61.5376V61.5381Z" fill="#0055D4"/>
<path d="M60.041 76.4795C53.7093 76.4795 47.9455 79.8834 44.5137 85.2686C44.7501 86.4365 45.0751 87.6155 45.5098 88.7254C48.2156 81.8025 54.4207 77.0972 61.4473 76.5379C60.9785 76.5004 60.5165 76.4797 60.041 76.4797V76.4795Z" fill="white"/>
<path d="M62.8533 61.5674C52.4982 61.5674 44.1035 70.3788 44.1035 81.2542C44.1035 83.8134 44.591 86.3457 45.5182 88.7135C48.4044 81.329 55.2513 76.505 62.8533 76.5022C70.4605 76.5022 77.3074 81.3398 80.1883 88.7297C81.1206 86.3565 81.6004 83.8188 81.6031 81.2542C81.6031 70.3788 73.211 61.5674 62.8533 61.5674Z" stroke="#12141A" stroke-miterlimit="100" stroke-linejoin="round"/>
<path d="M63.5157 30.5962C55.1552 37.9659 49.7325 48.1746 49.7285 58.8544C49.751 65.5656 51.7664 72.4601 55.3462 78.3023C57.7659 77.3124 60.2343 76.5073 62.8535 76.5019C65.4885 76.5019 68.0973 77.0165 70.5275 78.0102C74.0954 72.1626 75.9733 65.5656 75.9785 58.8544C75.9579 48.1705 71.8956 37.9576 63.5157 30.5962Z" fill="#00CCFF"/>
<path d="M63.6175 30.5962C59.2478 37.4971 55.625 48.5262 55.624 59.206C55.624 65.9172 61.0997 72.4601 61.8668 78.3023C62.3852 77.3124 62.9144 76.5073 63.4756 76.5019C64.0402 76.5019 64.5992 77.0165 65.1199 78.0102C65.8845 72.1626 61.2479 65.9172 61.249 59.206C61.249 48.522 61.0765 37.4889 63.6175 30.5962Z" fill="#00E7FF"/>
<path d="M63.5956 30.6006C52.5922 46.6108 53.5652 60.9248 60.0411 76.5381C60.5586 76.2206 61.0771 75.9185 61.6034 75.6592C54.6183 61.3719 55.2218 44.2898 63.7911 31.5381C63.4887 31.0963 63.9166 31.024 63.5956 30.6006Z" fill="white"/>
<path d="M63.791 31.538C72.1516 38.9076 76.2677 48.1628 76.2715 58.8426C76.249 65.5538 74.2262 72.4535 70.6465 78.2958C69.3884 75.2061 61.916 75.4833 58.166 77.3574C79.7435 67.4617 73.5455 41.9648 63.2081 31.6666C63.6616 31.2248 63.3093 31.9605 63.791 31.5373V31.538ZM60.334 76.4796C60.7112 76.4803 61.0759 76.5656 61.4475 76.5956C59.3889 76.7663 61.1326 76.1654 59.2207 76.9474C59.0688 76.6988 58.956 76.437 58.8105 76.1857C60.5307 75.7207 58.5419 76.4784 60.334 76.4784V76.4796Z" fill="#0055D4"/>
<path d="M56.2891 51.8247C56.2891 48.0617 59.3538 45.0049 63.1231 45.0049C66.8937 45.0049 69.9162 48.0603 69.9162 51.8247C69.9162 55.5863 66.8937 58.6389 63.1231 58.6389C59.3552 58.6389 56.2891 55.5849 56.2891 51.8247Z" fill="#FFCC00"/>
<path d="M63.498 30.6006C55.1374 37.9703 49.7323 48.163 49.7285 58.8428C49.751 65.554 51.7738 72.4536 55.3535 78.2959C56.1296 77.9785 56.9079 77.6763 57.6973 77.4172C54.4355 71.7633 52.5616 65.2294 52.541 58.8428C52.541 48.7772 56.2374 38.7844 63.791 31.5381C63.3375 31.0963 63.9799 31.024 63.498 30.6006Z" fill="white"/>
<path d="M64.7332 45.2236C68.3741 46.1991 70.5699 49.9284 69.5958 53.5631C68.6227 57.1952 64.8544 59.3292 61.2149 58.354C60.7159 58.2209 60.2835 58.0346 59.8457 57.8045C62.9665 57.932 65.8696 55.9236 66.7094 52.789C67.55 49.6521 66.0403 46.4638 63.273 45.0137C63.767 45.0343 64.2345 45.0888 64.7335 45.2226L64.7332 45.2236Z" fill="#FF8E00"/>
<path d="M61.6073 71.8816C65.34 71.696 69.1056 72.3693 72.6023 73.9018M53.0283 73.9006C54.1486 73.4099 55.297 73.0074 56.4627 72.6928L53.0283 73.9006ZM58.8577 72.1389C59.2655 72.0639 58.4473 72.1933 58.8577 72.1389V72.1389Z" stroke="#12141A" stroke-miterlimit="100" stroke-linecap="round" stroke-linejoin="round"/>
<path d="M49.9711 54.7222C49.9093 55.0351 49.8531 55.3489 49.8006 55.6636M49.7285 58.8544C49.751 65.5656 51.6836 72.3151 55.2633 78.1574C57.683 77.1676 60.2343 76.5073 62.8535 76.5019C65.4885 76.5019 68.0973 77.0165 70.5275 78.0102C74.0954 72.1626 75.9733 65.5656 75.9785 58.8544C75.9579 48.1705 71.8956 37.9576 63.5157 30.5962C57.0844 36.2653 52.3916 43.6141 50.5665 51.5652L49.7285 58.8544Z" stroke="#12141A" stroke-miterlimit="100" stroke-linecap="round" stroke-linejoin="round"/>
<path d="M43.3828 94.5016C44.5982 91.6925 47.4047 89.5968 50.4028 90.2129C50.8476 92.0243 51.5426 93.0859 52.3168 93.9093C50.0191 91.6117 50.0191 87.8866 52.3168 85.589C54.1996 83.7061 57.1124 83.3226 59.4185 84.654L59.4373 87.7706V76.9983C61.35 76.2787 63.3323 76.3942 65.3552 76.9983V91.1105L65.374 84.4499C67.6801 83.1184 70.8414 83.5433 72.7243 85.4262C75.0219 87.7238 75.0219 91.449 72.7243 93.7466C73.7955 92.7638 73.9788 91.4565 74.7007 90.1543C77.6988 89.5382 81.187 91.345 82.4024 94.1542C81.6692 91.4138 82.8676 88.5226 85.3243 87.1043C88.3229 85.373 92.1571 86.4004 93.8883 89.3991C95.6197 92.3978 94.5923 96.3351 91.5936 98.0664H22.8409C19.6913 92.7162 21.4754 85.0586 26.8255 81.909C32.1756 78.7593 39.0663 80.5433 42.216 85.8935C43.7443 88.4898 44.1663 91.5911 43.3878 94.5016H43.3828Z" fill="#ADB5B9"/>
<path d="M63.6738 77.417C63.314 77.417 62.9681 77.4618 62.6191 77.533C62.9244 77.593 63.2407 77.6924 63.5566 77.7674V84.3299V84.4462V91.1259C63.5566 91.6122 64.0076 92.0634 64.4941 92.0634C64.9807 92.0634 65.4247 91.6122 65.4316 91.1259V85.2079C65.531 85.1629 65.622 85.1291 65.7246 85.0916V84.4471V84.3311V77.7686C65.0177 77.5998 64.3455 77.4357 63.6738 77.417ZM33.4395 81.2842C33.185 81.2842 32.932 81.3161 32.6777 81.3423C39.4289 83.285 41.9881 87.7173 42.4595 94.5925C42.8333 94.5925 43.2601 95.2232 43.4004 94.8766C43.401 94.8578 43.401 94.8372 43.4004 94.8184C43.511 94.5668 43.6725 94.3478 43.8105 94.1153C44.4825 91.4809 44.078 88.7267 42.6973 86.3809C40.7086 83.0027 37.0959 81.1665 33.4395 81.2833V81.2842ZM69.8262 84.741C69.4688 84.7408 68.3903 84.4694 68.0393 84.535C71.8459 85.555 72.9828 89.4517 71.8039 93.8514C72.0393 93.6159 72.9836 93.9058 73.166 93.6463C73.1285 93.4318 73.1653 93.2368 73.3423 93.0604C73.4941 92.9085 73.6247 92.7559 73.7524 92.5916C73.9193 92.2153 74.0525 91.8184 74.1628 91.4198C74.204 91.3223 74.2959 91.2218 74.339 91.1268C74.3953 91.1268 74.4572 91.1268 74.5153 91.1268C75.0847 89.4166 74.7155 87.4597 73.3434 86.0877C72.4365 85.1806 71.1194 84.7415 69.8262 84.741V84.741ZM56.7064 84.6059C56.3401 84.605 55.9481 84.6435 55.5932 84.7222C57.7946 85.152 57.6387 85.68 57.6387 87.7867C57.6387 88.2731 58.0898 88.7242 58.5762 88.7242C59.0627 88.7242 59.5069 88.2731 59.5137 87.7867V85.2674C58.9026 85.0313 57.3381 84.6063 56.7064 84.605V84.6059ZM89.1035 87.2017C88.9423 87.2223 88.7956 87.2823 88.6348 87.318C90.0855 87.5994 91.4048 88.445 92.209 89.8377C93.6447 92.3245 92.7907 95.5786 90.3926 97.1033H92.5606C94.9587 95.5786 95.8128 92.3245 94.377 89.8377C93.2686 87.9177 91.1606 86.9368 89.1035 87.2008V87.2017ZM77.4727 90.6727C77.1623 90.6539 76.265 90.7644 75.9639 90.8057C75.9451 90.8413 75.2709 90.9744 75.2466 91.0098C77.8097 91.2648 80.8859 93.1713 81.6186 94.7452C82.7686 95.5541 82.0612 94.1904 82.4238 93.9386C82.4051 93.8992 82.4238 93.8598 82.4238 93.8223C82.4051 93.8036 82.4426 93.7773 82.4238 93.7642C81.365 92.1988 79.3902 90.7422 77.4727 90.6736V90.6727ZM50.3145 91.1852C49.9166 91.2152 49.5217 91.292 49.1426 91.4195C49.4319 92.5449 50.5943 94.03 51.7573 94.6642C52.8445 95.0527 51.8605 94.1073 52.248 93.6459C52.248 93.6271 52.248 93.6008 52.248 93.5877C52.0924 93.3432 51.9581 93.0857 51.8379 92.8258C51.4273 92.3231 51.0834 91.7735 50.9004 91.1852C50.7069 91.1664 50.5057 91.1664 50.3145 91.1852V91.1852Z" fill="#6C787E"/>
<path d="M62.3332 76.5042C61.3457 76.4855 60.4182 76.671 59.4619 77.0313V83.9454C60.3302 84.0073 58.8285 88.2483 59.6196 88.7055C61.6664 85.1602 61.4177 80.9317 61.4177 77.0313C61.8958 76.8513 62.959 76.7024 63.4454 76.6214C63.0814 76.5745 62.6927 76.5089 62.3323 76.5051L62.3332 76.5042ZM32.1572 80.3714C30.3456 80.4333 28.4971 80.969 26.8252 81.9532C21.4753 85.1028 19.6914 92.7166 22.8408 98.0667H25.4189C22.2695 92.7166 24.0534 85.1028 29.4033 81.9532C30.7961 81.1335 32.2896 80.6641 33.7979 80.4886C33.24 80.423 32.722 80.3517 32.1572 80.3723V80.3714ZM68.251 83.711C68.1535 83.7129 68.0561 83.7635 67.9582 83.7692V84.4723C68.4988 84.1603 69.1087 84.0094 69.7158 83.8864C69.2193 83.7776 68.7585 83.6989 68.251 83.7101V83.711ZM56.6494 83.8875C55.0675 83.8406 53.4902 84.41 52.3135 85.5867C51.021 86.8792 50.5112 88.6453 50.6729 90.3328C51.4137 90.1528 51.7251 93.3923 52.5188 93.5555C52.5188 88.3962 52.8811 85.9486 57.7627 84.0633C57.3911 83.9789 57.0263 83.8983 56.6494 83.887V83.8875ZM89.4148 86.8701C88.2103 86.7857 86.965 87.0407 85.8405 87.6904C84.2552 88.6056 83.2675 90.1448 82.9109 91.8503C82.6049 93.0128 83.1254 93.2902 83.2915 94.5749C83.8366 90.2048 85.8405 87.6902 90.2937 87.0456C90.0126 86.9856 89.702 86.89 89.4148 86.8694V86.8701ZM49.3252 90.157C48.2698 90.1758 43.1886 92.9102 43.9053 95.284C45.9638 93.1979 47.2564 91.7594 50.7317 91.4168C50.7129 91.353 50.3953 90.2803 50.3803 90.2156C50.0055 90.1387 49.6918 90.1537 49.3257 90.1575L49.3252 90.157Z" fill="white"/>
<path d="M25.1506 83.204C25.3848 82.9348 25.6322 82.6767 25.8922 82.4313M28.9519 80.9369C33.8841 79.2762 39.4716 81.2302 42.2168 85.8935C43.7451 88.4898 44.1671 91.5911 43.3886 94.5016C44.604 91.6925 47.4105 89.5968 50.4087 90.2129C50.8534 92.0243 51.5484 93.0859 52.3226 93.9093C50.0249 91.6117 50.0249 87.8866 52.3226 85.589C54.2054 83.7061 57.1183 83.3226 59.4243 84.654L59.4431 87.7706V76.9983C61.3558 76.2787 63.3381 76.3942 65.3611 76.9983V91.1105L65.3798 84.4499C67.6859 83.1184 70.8473 83.5433 72.7301 85.4262C75.0278 87.7238 75.0278 91.449 72.7301 93.7466C73.8013 92.7638 73.9849 91.4565 74.7068 90.1543C77.7049 89.5382 81.1928 91.345 82.4082 94.1542C81.9831 92.5654 82.211 90.9259 82.9522 89.5521L28.9519 80.9369ZM85.3301 87.1043C88.3288 85.373 92.1632 86.4004 93.8944 89.3991C95.6258 92.3978 94.5981 96.3351 91.5994 98.0664H22.8467C20.5977 94.2458 20.8643 89.2486 23.1488 85.5566L85.3301 87.1043Z" stroke="#12141A" stroke-linecap="round" stroke-linejoin="round"/>
<path d="M27.0895 92.6964C26.78 92.0326 26.6042 91.3143 26.5723 90.5826C26.5404 89.8509 26.653 89.1199 26.9035 88.4317C27.154 87.7434 27.5375 87.1113 28.0323 86.5713C28.5271 86.0313 29.1234 85.594 29.7873 85.2845C31.1279 84.6594 32.6621 84.5924 34.052 85.0983C35.442 85.6043 36.5741 86.6416 37.1992 87.9822" fill="#ADB5B9"/>
<path d="M27.0895 92.6964C26.78 92.0326 26.6042 91.3143 26.5723 90.5826C26.5404 89.8509 26.653 89.1199 26.9035 88.4317C27.154 87.7434 27.5375 87.1113 28.0323 86.5713C28.5271 86.0313 29.1234 85.594 29.7873 85.2845C31.1279 84.6594 32.6621 84.5924 34.052 85.0983C35.442 85.6043 36.5741 86.6416 37.1992 87.9822" stroke="#6C787E" stroke-linecap="round" stroke-linejoin="round"/>
<path d="M90.4934 93.3138C90.6121 93.0657 90.6795 92.7973 90.6918 92.5238C90.704 92.2504 90.6609 91.9773 90.5648 91.7201C90.4687 91.4629 90.3215 91.2266 90.1317 91.0248C89.9419 90.823 89.7133 90.6596 89.4586 90.544C88.9444 90.3104 88.356 90.2853 87.8228 90.4744C87.2897 90.6635 86.8555 91.0511 86.6157 91.5521" fill="#ADB5B9"/>
<path d="M90.4934 93.3138C90.6121 93.0657 90.6795 92.7973 90.6918 92.5238C90.704 92.2504 90.6609 91.9773 90.5648 91.7201C90.4687 91.4629 90.3215 91.2266 90.1317 91.0248C89.9419 90.823 89.7133 90.6596 89.4586 90.544C88.9444 90.3104 88.356 90.2853 87.8228 90.4744C87.2897 90.6635 86.8555 91.0511 86.6157 91.5521" stroke="#6C787E" stroke-width="0.999953" stroke-linecap="round" stroke-linejoin="round"/>
<path d="M62.2627 87.5117V92.8151" stroke="#6C787E" stroke-linecap="round" stroke-linejoin="round"/>
<path d="M64.9028 45.2686C61.2619 44.293 57.4957 46.4248 56.5218 50.0595C55.5487 53.6918 57.7448 57.4241 61.3844 58.3993C61.8833 58.5324 62.3508 58.5884 62.8449 58.6085C60.0781 57.1591 57.4911 53.9677 58.3311 50.8329C59.4169 46.7806 63.1507 45.69 66.2724 45.8176C65.8344 45.588 65.4017 45.4022 64.9028 45.2686Z" fill="white"/>
<path d="M69.9162 51.8247C69.9162 55.5863 66.8937 58.6389 63.1231 58.6389C59.3552 58.6389 56.2891 55.5849 56.2891 51.8247C56.2891 48.0617 59.3538 45.0049 63.1231 45.0049C65.317 45.0049 67.2576 46.0393 68.497 47.6459" stroke="#12141A" stroke-width="1.0003" stroke-miterlimit="34.178" stroke-linecap="round" stroke-linejoin="round"/>
</g>
<defs>
<filter id="filter0_d" x="2" y="6" width="128" height="128" filterUnits="userSpaceOnUse" color-interpolation-filters="sRGB">
<feFlood flood-opacity="0" result="BackgroundImageFix"/>
<feColorMatrix in="SourceAlpha" type="matrix" values="0 0 0 0 0 0 0 0 0 0 0 0 0 0 0 0 0 0 127 0"/>
<feOffset dy="4"/>
<feGaussianBlur stdDeviation="2"/>
<feColorMatrix type="matrix" values="0 0 0 0 0 0 0 0 0 0 0 0 0 0 0 0 0 0 0.15 0"/>
<feBlend mode="normal" in2="BackgroundImageFix" result="effect1_dropShadow"/>
<feBlend mode="normal" in="SourceGraphic" in2="effect1_dropShadow" result="shape"/>
</filter>
</defs>
</svg>
